<svg width="109" height="31" viewBox="0 0 109 31" fill="none" xmlns="http://www.w3.org/2000/svg">
<path d="M0.49 24V3H4.51L13.45 17.82H11.32L20.11 3H24.1L24.16 24H19.6L19.57 9.99H20.41L13.39 21.78H11.2L4.03 9.99H5.05V24H0.49ZM29.9523 30.06C29.1123 30.06 28.2823 29.93 27.4623 29.67C26.6423 29.41 25.9723 29.05 25.4523 28.59L27.1623 25.26C27.5223 25.58 27.9323 25.83 28.3923 26.01C28.8723 26.19 29.3423 26.28 29.8023 26.28C30.4623 26.28 30.9823 26.12 31.3623 25.8C31.7623 25.5 32.1223 24.99 32.4423 24.27L33.2823 22.29L33.6423 21.78L39.4323 7.86H43.9323L36.6423 24.99C36.1223 26.29 35.5223 27.31 34.8423 28.05C34.1823 28.79 33.4423 29.31 32.6223 29.61C31.8223 29.91 30.9323 30.06 29.9523 30.06ZM32.7123 24.63L25.5123 7.86H30.3423L35.9223 21.36L32.7123 24.63Z" fill="#111827"/>
<path d="M45.272 24V3H54.812C57.092 3 59.102 3.44 60.842 4.32C62.582 5.18 63.942 6.39 64.922 7.95C65.902 9.51 66.392 11.36 66.392 13.5C66.392 15.62 65.902 17.47 64.922 19.05C63.942 20.61 62.582 21.83 60.842 22.71C59.102 23.57 57.092 24 54.812 24H45.272ZM50.132 20.01H54.572C55.972 20.01 57.182 19.75 58.202 19.23C59.242 18.69 60.042 17.93 60.602 16.95C61.182 15.97 61.472 14.82 61.472 13.5C61.472 12.16 61.182 11.01 60.602 10.05C60.042 9.07 59.242 8.32 58.202 7.8C57.182 7.26 55.972 6.99 54.572 6.99H50.132V20.01ZM68.8272 24V7.86H73.5072V24H68.8272ZM71.1672 5.61C70.3072 5.61 69.6072 5.36 69.0672 4.86C68.5272 4.36 68.2572 3.74 68.2572 3C68.2572 2.26 68.5272 1.64 69.0672 1.14C69.6072 0.639999 70.3072 0.389998 71.1672 0.389998C72.0272 0.389998 72.7272 0.629999 73.2672 1.11C73.8072 1.57 74.0772 2.17 74.0772 2.91C74.0772 3.69 73.8072 4.34 73.2672 4.86C72.7472 5.36 72.0472 5.61 71.1672 5.61ZM82.3806 24.24C81.0006 24.24 79.6706 24.08 78.3906 23.76C77.1306 23.42 76.1306 23 75.3906 22.5L76.9506 19.14C77.6906 19.6 78.5606 19.98 79.5606 20.28C80.5806 20.56 81.5806 20.7 82.5606 20.7C83.6406 20.7 84.4006 20.57 84.8406 20.31C85.3006 20.05 85.5306 19.69 85.5306 19.23C85.5306 18.85 85.3506 18.57 84.9906 18.39C84.6506 18.19 84.1906 18.04 83.6106 17.94C83.0306 17.84 82.3906 17.74 81.6906 17.64C81.0106 17.54 80.3206 17.41 79.6206 17.25C78.9206 17.07 78.2806 16.81 77.7006 16.47C77.1206 16.13 76.6506 15.67 76.2906 15.09C75.9506 14.51 75.7806 13.76 75.7806 12.84C75.7806 11.82 76.0706 10.92 76.6506 10.14C77.2506 9.36 78.1106 8.75 79.2306 8.31C80.3506 7.85 81.6906 7.62 83.2506 7.62C84.3506 7.62 85.4706 7.74 86.6106 7.98C87.7506 8.22 88.7006 8.57 89.4606 9.03L87.9006 12.36C87.1206 11.9 86.3306 11.59 85.5306 11.43C84.7506 11.25 83.9906 11.16 83.2506 11.16C82.2106 11.16 81.4506 11.3 80.9706 11.58C80.4906 11.86 80.2506 12.22 80.2506 12.66C80.2506 13.06 80.4206 13.36 80.7606 13.56C81.1206 13.76 81.5906 13.92 82.1706 14.04C82.7506 14.16 83.3806 14.27 84.0606 14.37C84.7606 14.45 85.4606 14.58 86.1606 14.76C86.8606 14.94 87.4906 15.2 88.0506 15.54C88.6306 15.86 89.1006 16.31 89.4606 16.89C89.8206 17.45 90.0006 18.19 90.0006 19.11C90.0006 20.11 89.7006 21 89.1006 21.78C88.5006 22.54 87.6306 23.14 86.4906 23.58C85.3706 24.02 84.0006 24.24 82.3806 24.24ZM101.798 7.62C103.078 7.62 104.218 7.88 105.218 8.4C106.238 8.9 107.038 9.68 107.618 10.74C108.198 11.78 108.488 13.12 108.488 14.76V24H103.808V15.48C103.808 14.18 103.518 13.22 102.938 12.6C102.378 11.98 101.578 11.67 100.538 11.67C99.7981 11.67 99.1281 11.83 98.5281 12.15C97.9481 12.45 97.4881 12.92 97.1481 13.56C96.8281 14.2 96.6681 15.02 96.6681 16.02V24H91.9881V1.74H96.6681V12.33L95.6181 10.98C96.1981 9.9 97.0281 9.07 98.1081 8.49C99.1881 7.91 100.418 7.62 101.798 7.62Z" fill="white"/>
</svg>
